# xmcd
#
# Track frame offsets:
#	150
#	16872
#	33624
#	47356
#	61263
#	78370
#	95950
#	112775
#	126112
#	144030
#	161984
#	178224
#	191337
#	207434
#	225651
#	240031
#	257484
#	275089
#	288499
#	303784
#	316947
#
# Disc length: 4400 seconds
#
# Revision: 0
# Processed by: cddbd v1.5.2PL0 Copyright (c) Steve Scherf et al.
# Submitted via: audiograbber 1.83.01
#
DISCID=17112e15
DTITLE=Grupo bryndis - Olvidemos Nuestro Orgullo
DYEAR=1900
DGENRE=
TTITLE0=Nuestro Orgullo
TTITLE1=Volvemos A Empezar
TTITLE2=Despedida Triste
TTITLE3=Te Esperare
TTITLE4=Crei Que Me Amabas
TTITLE5=Sin Ti
TTITLE6=Amor Te Necesito
TTITLE7=Cuando Volveras
TTITLE8=Tuve Que Partir
TTITLE9=Cuando Vuelvas Tu
TTITLE10=Tu Traicion
TTITLE11=La Luz De Mi Vida
TTITLE12=Perdoname
TTITLE13=Por Estar Contigo
TTITLE14=Tu Lugar Se Ocupo
TTITLE15=Amor Prohibido
TTITLE16=Pagando Mi Pasado
TTITLE17=Valor De Amor
TTITLE18=Tu Adios
TTITLE19=Regresa
TTITLE20=Te He Prometido
EXTD=
EXTT0=
EXTT1=
EXTT2=
EXTT3=
EXTT4=
EXTT5=
EXTT6=
EXTT7=
EXTT8=
EXTT9=
EXTT10=
EXTT11=
EXTT12=
EXTT13=
EXTT14=
EXTT15=
EXTT16=
EXTT17=
EXTT18=
EXTT19=
EXTT20=
PLAYORDER=
